<mxfile host="app.diagrams.net" modified="2024-05-14T16:43:48.400Z" agent="Mozilla/5.0 (Windows NT 10.0; Win64; x64) AppleWebKit/537.36 (KHTML, like Gecko) Chrome/99.0.4844.88 Safari/537.36" etag="oMlhPh08NRbAHhnGoCjr" version="24.4.0" type="github">
  <diagram id="prtHgNgQTEPvFCAcTncT" name="Page-1">
    <mxGraphModel dx="825" dy="348" grid="1" gridSize="10" guides="1" tooltips="1" connect="1" arrows="1" fold="1" page="1" pageScale="1" pageWidth="827" pageHeight="1169" math="0" shadow="0">
      <root>
        <mxCell id="0" />
        <mxCell id="1" parent="0" />
        <mxCell id="NXDCmqBdZJU1XrQQkSmx-1" value="full_pack" style="rounded=0;whiteSpace=wrap;html=1;" vertex="1" parent="1">
          <mxGeometry x="660" y="130" width="110" height="40" as="geometry" />
        </mxCell>
        <mxCell id="NXDCmqBdZJU1XrQQkSmx-2" value="模块收集" style="rounded=0;whiteSpace=wrap;html=1;" vertex="1" parent="1">
          <mxGeometry x="660" y="210" width="110" height="40" as="geometry" />
        </mxCell>
        <mxCell id="NXDCmqBdZJU1XrQQkSmx-3" value="模块运行&lt;div&gt;cfg_loader&lt;/div&gt;" style="rounded=0;whiteSpace=wrap;html=1;" vertex="1" parent="1">
          <mxGeometry x="660" y="290" width="110" height="40" as="geometry" />
        </mxCell>
        <mxCell id="NXDCmqBdZJU1XrQQkSmx-4" value="压缩分包&lt;div&gt;package_maker&lt;/div&gt;" style="rounded=0;whiteSpace=wrap;html=1;" vertex="1" parent="1">
          <mxGeometry x="660" y="370" width="110" height="40" as="geometry" />
        </mxCell>
        <mxCell id="NXDCmqBdZJU1XrQQkSmx-5" value="生成解包脚本" style="rounded=0;whiteSpace=wrap;html=1;" vertex="1" parent="1">
          <mxGeometry x="660" y="450" width="110" height="40" as="geometry" />
        </mxCell>
        <mxCell id="NXDCmqBdZJU1XrQQkSmx-6" value="加密签名&lt;div&gt;packdav&lt;/div&gt;" style="rounded=0;whiteSpace=wrap;html=1;" vertex="1" parent="1">
          <mxGeometry x="660" y="530" width="110" height="40" as="geometry" />
        </mxCell>
        <mxCell id="NXDCmqBdZJU1XrQQkSmx-8" style="edgeStyle=none;curved=1;rounded=0;orthogonalLoop=1;jettySize=auto;html=1;fontSize=12;startSize=8;endSize=8;" edge="1" parent="1" source="NXDCmqBdZJU1XrQQkSmx-7" target="NXDCmqBdZJU1XrQQkSmx-2">
          <mxGeometry relative="1" as="geometry" />
        </mxCell>
        <mxCell id="NXDCmqBdZJU1XrQQkSmx-7" value="pk.list" style="shape=parallelogram;perimeter=parallelogramPerimeter;whiteSpace=wrap;html=1;fixedSize=1;" vertex="1" parent="1">
          <mxGeometry x="520" y="210" width="90" height="40" as="geometry" />
        </mxCell>
        <mxCell id="NXDCmqBdZJU1XrQQkSmx-10" value="模块库" style="ellipse;whiteSpace=wrap;html=1;" vertex="1" parent="1">
          <mxGeometry x="810" y="150" width="90" height="50" as="geometry" />
        </mxCell>
        <mxCell id="NXDCmqBdZJU1XrQQkSmx-12" value="TODO" style="text;strokeColor=none;align=center;fillColor=none;html=1;verticalAlign=middle;whiteSpace=wrap;rounded=0;fontSize=16;" vertex="1" parent="1">
          <mxGeometry x="384" y="140" width="60" height="120" as="geometry" />
        </mxCell>
      </root>
    </mxGraphModel>
  </diagram>
</mxfile>
